<svg xmlns="http://www.w3.org/2000/svg" viewBox="0 0 64 64" fill="none">
  <rect width="64" height="64" rx="12" fill="#07101f"/>
  <path d="M6 14h16v6H12v8h9v6h-9v16H6V14Z" fill="#fbbf24"/>
  <path d="M23 14h18v6h-6v30h-6V20h-6v-6Z" fill="#f59e0b"/>
  <path d="M41 14h6l2 23 3-14h4l2 14 1-23h5l-2 36h-6l-2-14-3 14h-6l-4-36Z" fill="#fbbf24"/>
  <path d="M9 22h10M27 18h10M46 18l2 15M58 18l-1 15" stroke="#22d3ee" stroke-width="1.5"/>
  <circle cx="10" cy="40" r="1.5" fill="#84cc16"/>
  <circle cx="32" cy="28" r="1.5" fill="#22d3ee"/>
  <circle cx="58" cy="42" r="1.5" fill="#84cc16"/>
</svg>
