<svg xmlns="http://www.w3.org/2000/svg" viewBox="0 0 1024 1024" fill="none">
  <title>FTW logo</title>
  <defs>
    <radialGradient id="background" cx="0" cy="0" r="1" gradientTransform="translate(512 506) rotate(90) scale(650)">
      <stop stop-color="#0b1b34"/>
      <stop offset="1" stop-color="#030914"/>
    </radialGradient>
    <linearGradient id="gold" x1="512" y1="330" x2="512" y2="700" gradientUnits="userSpaceOnUse">
      <stop stop-color="#ffe33b"/>
      <stop offset="0.24" stop-color="#ffbd00"/>
      <stop offset="0.72" stop-color="#ff9d00"/>
      <stop offset="1" stop-color="#ffb800"/>
    </linearGradient>
    <filter id="glow" x="-20%" y="-30%" width="140%" height="160%" color-interpolation-filters="sRGB">
      <feGaussianBlur stdDeviation="18" result="blur"/>
      <feColorMatrix in="blur" values="1 0 0 0 0.35 0 0.55 0 0 0.18 0 0 0.1 0 0 0 0 0 0.46 0"/>
      <feMerge>
        <feMergeNode/>
        <feMergeNode in="SourceGraphic"/>
      </feMerge>
    </filter>
  </defs>

  <rect width="1024" height="1024" rx="112" fill="url(#background)"/>

  <g opacity="0.3" stroke="#0e3555" stroke-width="6">
    <path d="M104 250h136l34 34h128"/>
    <path d="M86 770h172l28-28h105"/>
    <path d="M636 250h116l32 32h151"/>
    <path d="M628 770h116l34-34h164"/>
  </g>

  <g filter="url(#glow)">
    <path d="M108 324h262v88H217v70h132v86H217v142H108V324Z" fill="url(#gold)"/>
    <path d="M385 324h264v88h-82v298H461V412h-76v-88Z" fill="url(#gold)"/>
    <path d="M626 324h91l31 241 44-119h69l43 119 24-241h91l-44 386h-93l-58-139-62 139h-92l-44-386Z" fill="url(#gold)"/>

    <path d="M121 342h232v16H137v337h-16V342Z" fill="#fff275" opacity="0.88"/>
    <path d="M401 342h231v16H401v-16Z" fill="#fff275" opacity="0.88"/>
    <path d="M643 342h58l30 234-16 2-30-220h-42v-16Z" fill="#fff275" opacity="0.88"/>

    <g stroke="#0b2441" stroke-width="18" stroke-linecap="square" stroke-linejoin="miter">
      <path d="M205 411h128"/>
      <path d="M205 568h109"/>
      <path d="M476 412h76"/>
      <path d="M476 690h76"/>
      <path d="M703 346l31 231 30 94"/>
      <path d="M944 346l-22 229-40 98"/>
    </g>

    <g stroke-linecap="square" stroke-linejoin="miter">
      <path d="M137 455h42l24-24h42v-31h69" stroke="#69f02a" stroke-width="10"/>
      <path d="M137 622h39l25-25h83" stroke="#78fa2e" stroke-width="10"/>
      <path d="M222 684v-72h68" stroke="#17d9ff" stroke-width="9"/>
      <path d="M397 368h52v28h42" stroke="#18d8ff" stroke-width="10"/>
      <path d="M526 398h85" stroke="#19dcff" stroke-width="10"/>
      <path d="M526 425h72" stroke="#6bf138" stroke-width="9"/>
      <path d="M486 676v-191h34" stroke="#76f23b" stroke-width="9"/>
      <path d="M545 688V501h28" stroke="#17d9ff" stroke-width="9"/>
      <path d="M686 365l26 222 58 85" stroke="#19dcff" stroke-width="10"/>
      <path d="M752 616l58-113 64 160" stroke="#7cf22f" stroke-width="10"/>
      <path d="M892 651l37-73 21-218" stroke="#16d9ff" stroke-width="10"/>
    </g>

    <g fill="#18d9ff">
      <rect x="264" y="390" width="13" height="13"/>
      <rect x="288" y="390" width="13" height="13"/>
      <rect x="312" y="390" width="13" height="13"/>
      <rect x="157" y="674" width="13" height="13"/>
      <rect x="181" y="674" width="13" height="13"/>
      <rect x="299" y="589" width="13" height="13"/>
      <rect x="323" y="589" width="13" height="13"/>
      <rect x="441" y="367" width="13" height="13"/>
      <rect x="465" y="367" width="13" height="13"/>
      <rect x="489" y="367" width="13" height="13"/>
      <rect x="532" y="644" width="13" height="13"/>
      <rect x="532" y="668" width="13" height="13"/>
      <rect x="728" y="608" width="13" height="13"/>
      <rect x="742" y="632" width="13" height="13"/>
      <rect x="905" y="632" width="13" height="13"/>
      <rect x="929" y="632" width="13" height="13"/>
    </g>

    <g fill="#83f52c">
      <rect x="173" y="445" width="14" height="14"/>
      <rect x="180" y="611" width="14" height="14"/>
      <rect x="473" y="473" width="14" height="14"/>
      <rect x="803" y="492" width="14" height="14"/>
      <rect x="870" y="626" width="14" height="14"/>
    </g>
  </g>
</svg>
